<svg id="np_info_3551164_000000"
    xmlns="http://www.w3.org/2000/svg" width="16" height="16" viewBox="0 0 16 16">
    <path id="Path_85" data-name="Path 85" d="M27,19a8,8,0,1,0,5.657,2.343A8,8,0,0,0,27,19Zm0,14.452a6.453,6.453,0,1,1,4.562-1.89A6.448,6.448,0,0,1,27,33.452Z" transform="translate(-19 -19)" fill="#323232"/>
    <path id="Path_86" data-name="Path 86" d="M47,49h1.548v4.129H47Z" transform="translate(-39.774 -41.258)" fill="#323232"/>
    <path id="Path_87" data-name="Path 87" d="M48.548,35.774a.774.774,0,0,1-1.548,0,.774.774,0,0,1,1.548,0" transform="translate(-39.774 -30.871)" fill="#323232"/>
</svg>
